<?xml version="1.0" encoding="UTF-8" standalone="no"?>
<!-- Created with Inkscape (http://www.inkscape.org/) -->

<svg
   xmlns:dc="http://purl.org/dc/elements/1.1/"
   xmlns:cc="http://creativecommons.org/ns#"
   xmlns:rdf="http://www.w3.org/1999/02/22-rdf-syntax-ns#"
   xmlns:svg="http://www.w3.org/2000/svg"
   xmlns="http://www.w3.org/2000/svg"
   xmlns:sodipodi="http://sodipodi.sourceforge.net/DTD/sodipodi-0.dtd"
   xmlns:inkscape="http://www.inkscape.org/namespaces/inkscape"
   width="19.624123mm"
   height="8.4669304mm"
   viewBox="0 0 19.624123 8.4669304"
   version="1.1"
   id="svg8"
   inkscape:export-filename="C:\Users\adelisa\vw.png"
   inkscape:export-xdpi="331.35001"
   inkscape:export-ydpi="331.35001"
   inkscape:version="0.92.4 (5da689c313, 2019-01-14)"
   sodipodi:docname="logo.svg">
  <defs
     id="defs2" />
  <sodipodi:namedview
     id="base"
     pagecolor="#ffffff"
     bordercolor="#666666"
     borderopacity="1.0"
     inkscape:pageopacity="0.0"
     inkscape:pageshadow="2"
     inkscape:zoom="7.9195959"
     inkscape:cx="28.932121"
     inkscape:cy="-26.499881"
     inkscape:document-units="mm"
     inkscape:current-layer="flowRoot840"
     showgrid="false"
     fit-margin-top="0"
     fit-margin-left="0"
     fit-margin-right="0"
     fit-margin-bottom="0"
     inkscape:window-width="2736"
     inkscape:window-height="1699"
     inkscape:window-x="-13"
     inkscape:window-y="-13"
     inkscape:window-maximized="1" />
  <metadata
     id="metadata5">
    <rdf:RDF>
      <cc:Work
         rdf:about="">
        <dc:format>image/svg+xml</dc:format>
        <dc:type
           rdf:resource="http://purl.org/dc/dcmitype/StillImage" />
        <dc:title />
      </cc:Work>
    </rdf:RDF>
  </metadata>
  <g
     inkscape:label="Layer 1"
     inkscape:groupmode="layer"
     id="layer1"
     transform="translate(-19.392169,-86.01356)">
    <path
       id="path829"
       d="m 33.734272,94.48049 c -0.564356,-1.17422 -0.263789,-1.84706 0.169863,-2.48073 0.474927,-0.69427 0.597429,-1.38139 0.597429,-1.38139 0,0 0.373327,0.48524 0.224102,1.24433 0.659606,-0.73422 0.78396,-1.90394 0.684477,-2.35188 1.490927,1.04193 2.128044,3.29777 1.269471,4.96967 4.567238,-2.58419 1.136121,-6.45054 0.538691,-6.88631 0.199232,0.4355 0.236803,1.1729 -0.165364,1.53061 -0.680773,-2.58207 -2.364581,-3.11123 -2.364581,-3.11123 0.199231,1.33165 -0.721784,2.78765 -1.609725,3.87561 -0.03122,-0.53101 -0.06429,-0.89746 -0.34343,-1.40546 -0.06271,0.96467 -0.799835,1.75075 -0.999331,2.71727 -0.270404,1.30863 0.202406,2.26695 1.998927,3.27924 z"
       inkscape:connector-curvature="0"
       style="fill:#a30000;fill-opacity:1;stroke-width:0.26458332" />
    <g
       aria-label="VW"
       transform="matrix(0.26458333,0,0,0.26458333,8.8867118,-2.0713388)"
       style="font-style:normal;font-weight:normal;font-size:29.33333397px;line-height:1.25;font-family:sans-serif;letter-spacing:0px;word-spacing:0px;fill:#000000;fill-opacity:1;stroke:none"
       id="flowRoot840">
      <path
         d="m 41.687297,347.08649 q -0.104296,-0.23467 -0.299852,-0.4563 -0.182518,-0.23467 -0.443259,-0.31289 l -1.238519,-0.352 v -0.67792 h 6.492445 v 0.67792 l -2.229334,0.48237 4.706371,12.08534 0.638815,1.79911 h 0.02607 l 5.136593,-13.81926 -2.216297,-0.54756 v -0.67792 h 5.214815 v 0.67792 l -1.160296,0.36504 q -0.260741,0.0652 -0.456297,0.29985 -0.195555,0.22163 -0.299851,0.4563 l -5.227852,13.57155 -1.486223,2.98548 h -0.690963 z"
         style="font-style:normal;font-variant:normal;font-weight:normal;font-stretch:normal;font-family:'Sitka Display';-inkscape-font-specification:'Sitka Display'"
         id="path835"
         inkscape:connector-curvature="0" />
      <path
         d="m 58.385246,347.06041 q -0.07822,-0.2477 -0.286815,-0.44326 -0.195555,-0.20859 -0.456296,-0.29985 l -1.082074,-0.352 v -0.67792 h 6.322963 v 0.67792 l -2.242371,0.48237 3.376593,11.15971 0.677926,2.32059 h 0.03911 l 3.559111,-11.32919 1.355852,-3.25926 h 0.977778 l 3.74163,12.11141 0.756148,2.5683 h 0.03911 l 4.276148,-13.50637 -2.229333,-0.54756 v -0.67792 h 5.201778 v 0.67792 l -1.082074,0.36504 q -0.247704,0.0782 -0.456297,0.31289 -0.208592,0.22163 -0.299852,0.46933 l -4.315259,13.20652 -1.342815,3.24622 h -1.029926 l -3.976296,-12.77629 -0.495407,-1.73393 h -0.03911 l -3.559111,11.264 -1.355852,3.24622 h -1.069037 z"
         style="font-style:normal;font-variant:normal;font-weight:normal;font-stretch:normal;font-family:'Sitka Display';-inkscape-font-specification:'Sitka Display'"
         id="path837"
         inkscape:connector-curvature="0" />
    </g>
  </g>
</svg>
